<svg id="svg" version="1.1" xmlns="http://www.w3.org/2000/svg" xmlns:xlink="http://www.w3.org/1999/xlink" width="300" height="160" viewBox="50, 140, 300,120"><g id="svgg"><path id="path0" d="M204.750 161.887 C 204.426 162.018,204.333 165.129,204.333 175.861 L 204.333 189.667 206.990 189.667 L 209.647 189.667 209.740 185.421 L 209.833 181.176 211.886 183.901 C 213.016 185.401,214.366 187.386,214.886 188.313 L 215.833 189.999 218.564 190.000 C 220.065 190.000,221.366 189.883,221.454 189.741 C 221.687 189.364,218.402 184.567,215.922 181.664 L 213.784 179.161 217.221 175.330 C 221.364 170.712,221.330 171.000,217.733 171.000 L 214.799 171.000 212.687 173.997 C 209.442 178.603,209.667 178.923,209.667 169.707 L 209.667 161.667 207.417 161.693 C 206.179 161.707,204.979 161.795,204.750 161.887 M159.974 162.974 C 157.904 165.045,159.345 168.333,162.323 168.333 C 164.279 168.333,165.333 167.225,165.333 165.167 C 165.333 162.122,162.135 160.813,159.974 162.974 M255.974 162.974 C 253.904 165.045,255.345 168.333,258.323 168.333 C 260.279 168.333,261.333 167.225,261.333 165.167 C 261.333 162.122,258.135 160.813,255.974 162.974 M112.497 164.955 C 104.949 168.384,105.078 187.404,112.666 190.050 C 113.217 190.242,113.765 190.902,114.248 191.955 C 115.365 194.391,118.355 196.089,122.365 196.565 L 123.897 196.747 124.299 194.703 C 124.796 192.178,124.775 192.144,122.485 191.875 C 121.458 191.754,120.067 191.425,119.394 191.144 L 118.171 190.633 119.502 190.024 C 126.768 186.700,127.097 168.766,119.957 165.208 C 117.780 164.123,114.568 164.014,112.497 164.955 M228.333 177.333 L 228.333 189.667 231.000 189.667 L 233.667 189.667 233.667 184.333 L 233.667 179.000 238.167 179.000 L 242.667 179.000 242.667 177.000 L 242.667 175.000 238.167 175.000 L 233.667 175.000 233.667 172.000 L 233.667 169.000 238.667 169.000 L 243.667 169.000 243.667 167.000 L 243.667 165.000 236.000 165.000 L 228.333 165.000 228.333 177.333 M117.939 169.438 C 120.275 171.284,120.332 183.056,118.015 185.153 C 114.287 188.527,111.357 182.198,112.481 173.200 C 112.938 169.544,115.679 167.654,117.939 169.438 M155.333 172.667 L 155.333 174.667 157.917 174.667 L 160.500 174.667 160.568 179.883 C 160.678 188.260,162.185 190.267,168.106 189.923 C 172.300 189.680,172.791 189.337,172.509 186.849 C 172.231 184.388,172.455 184.557,170.234 185.135 C 166.067 186.221,165.678 185.535,165.672 177.083 L 165.667 170.667 160.500 170.667 L 155.333 170.667 155.333 172.667 M186.667 170.978 C 178.351 173.517,176.997 185.177,184.586 188.890 C 186.834 189.990,191.824 190.369,194.921 189.676 L 196.733 189.271 196.514 187.719 C 196.119 184.916,196.136 184.937,194.389 185.218 C 188.199 186.214,185.002 184.551,185.002 180.333 C 185.002 176.000,187.295 174.810,194.474 175.418 C 195.434 175.499,196.625 173.008,196.196 171.813 C 195.851 170.852,189.036 170.255,186.667 170.978 M251.333 172.667 L 251.333 174.667 253.917 174.667 L 256.500 174.667 256.568 179.883 C 256.678 188.260,258.185 190.267,264.106 189.923 C 268.300 189.680,268.791 189.337,268.509 186.849 C 268.231 184.388,268.455 184.557,266.234 185.135 C 262.067 186.221,261.678 185.535,261.672 177.083 L 261.667 170.667 256.500 170.667 L 251.333 170.667 251.333 172.667 M278.333 171.115 L 276.500 171.500 276.411 180.583 L 276.323 189.667 278.995 189.667 L 281.667 189.667 281.667 182.542 L 281.667 175.417 282.583 175.236 C 285.964 174.570,286.472 175.599,286.615 183.401 L 286.729 189.667 289.198 189.667 L 291.667 189.667 291.667 183.042 C 291.667 174.420,291.147 172.826,287.833 171.297 C 286.271 170.576,281.354 170.482,278.333 171.115 M132.335 177.583 C 132.338 186.361,132.970 188.170,136.510 189.521 C 138.175 190.157,144.090 190.054,146.417 189.348 L 147.667 188.969 147.667 179.984 L 147.667 171.000 145.000 171.000 L 142.333 171.000 142.333 178.128 L 142.333 185.256 141.417 185.433 C 138.035 186.090,137.528 185.063,137.385 177.265 L 137.271 171.000 134.802 171.000 L 132.333 171.000 132.335 177.583 M187.915 218.917 C 187.483 219.783,187.915 220.172,189.417 220.268 L 191.000 220.370 191.002 226.102 C 191.005 234.281,191.443 235.333,194.844 235.333 C 196.873 235.333,197.739 234.810,197.457 233.753 C 197.291 233.133,197.108 233.046,196.379 233.240 C 193.436 234.021,193.344 233.791,193.338 225.583 L 193.333 218.667 190.686 218.667 C 189.230 218.667,187.983 218.779,187.915 218.917 M221.210 219.354 C 220.107 220.227,219.333 221.864,219.333 223.323 C 219.333 224.255,219.243 224.333,218.167 224.333 C 217.144 224.333,217.000 224.437,217.000 225.167 C 217.000 225.897,217.144 226.000,218.167 226.000 L 219.333 226.000 219.333 230.667 L 219.333 235.333 220.500 235.333 L 221.667 235.333 221.667 230.667 L 221.667 226.000 223.833 226.000 C 225.922 226.000,226.000 225.970,226.000 225.167 C 226.000 224.363,225.922 224.333,223.833 224.333 L 221.667 224.333 221.667 223.152 C 221.667 222.327,221.925 221.711,222.522 221.114 C 223.392 220.244,223.631 220.227,226.113 220.850 C 226.952 221.060,227.809 219.698,227.213 219.101 C 226.544 218.433,222.138 218.619,221.210 219.354 M233.650 220.187 C 232.528 221.539,234.813 223.457,236.187 222.317 C 236.770 221.833,236.813 220.613,236.267 220.067 C 235.700 219.500,234.161 219.571,233.650 220.187 M87.889 220.556 C 87.767 220.678,87.667 224.053,87.667 228.056 L 87.667 235.333 88.833 235.333 L 90.000 235.333 90.000 232.500 L 90.000 229.667 91.677 229.667 C 95.061 229.667,96.998 227.968,96.998 225.000 C 96.998 223.093,96.016 221.445,94.503 220.813 C 93.341 220.328,88.313 220.132,87.889 220.556 M94.083 223.028 C 95.388 224.621,94.666 227.117,92.746 227.650 C 90.028 228.405,90.000 228.378,90.000 224.954 L 90.000 221.907 91.750 222.111 C 92.963 222.253,93.679 222.534,94.083 223.028 M103.651 224.751 C 100.490 226.881,100.368 232.175,103.427 234.455 C 105.969 236.349,111.837 235.177,110.200 233.102 C 110.172 233.067,109.505 233.182,108.718 233.359 C 106.235 233.917,104.095 232.981,103.517 231.083 C 103.289 230.334,103.292 230.333,107.358 230.333 L 111.427 230.333 111.240 228.530 C 110.826 224.515,106.901 222.561,103.651 224.751 M118.250 224.401 L 117.000 224.733 117.000 230.033 L 117.000 235.333 118.167 235.333 L 119.333 235.333 119.333 230.712 L 119.333 226.091 120.868 225.880 C 121.712 225.765,122.966 225.760,123.653 225.870 C 124.888 226.067,125.698 225.193,125.131 224.275 C 124.898 223.898,119.791 223.992,118.250 224.401 M132.833 224.387 C 129.626 226.151,130.679 229.047,135.094 230.603 C 136.295 231.027,137.360 231.589,137.462 231.853 C 138.144 233.633,135.756 234.036,131.750 232.817 C 130.510 232.440,130.669 234.556,131.917 235.036 C 133.594 235.682,137.826 235.279,138.780 234.384 C 141.047 232.254,140.011 230.339,135.679 228.651 C 131.976 227.209,133.101 225.161,137.132 226.005 C 138.997 226.396,138.877 226.438,139.164 225.295 C 139.345 224.573,139.250 224.389,138.608 224.217 C 137.347 223.879,133.554 223.991,132.833 224.387 M146.984 224.751 C 142.538 227.747,144.461 235.333,149.667 235.333 C 152.736 235.333,154.694 233.140,154.711 229.683 C 154.727 226.227,152.751 224.000,149.667 224.000 C 148.592 224.000,147.748 224.236,146.984 224.751 M160.417 224.219 C 159.676 224.378,159.667 224.446,159.667 229.878 L 159.667 235.376 160.742 235.271 L 161.818 235.167 161.799 230.610 L 161.780 226.053 162.849 225.852 C 165.628 225.331,166.333 226.517,166.333 231.709 L 166.333 235.376 167.417 235.271 L 168.500 235.167 168.512 232.000 C 168.540 224.782,166.583 222.902,160.417 224.219 M175.096 224.267 C 173.874 225.044,175.046 225.970,177.164 225.901 C 181.310 225.767,182.249 228.181,178.132 228.388 C 174.327 228.581,172.675 230.782,174.169 233.670 C 174.992 235.263,181.769 236.120,182.622 234.739 C 183.062 234.027,182.805 226.715,182.308 225.786 C 181.488 224.254,176.702 223.247,175.096 224.267 M246.750 224.219 C 246.009 224.378,246.000 224.446,246.000 229.878 L 246.000 235.376 247.076 235.271 L 248.151 235.167 248.132 230.610 L 248.113 226.053 249.182 225.852 C 251.961 225.331,252.667 226.517,252.667 231.709 L 252.667 235.376 253.750 235.271 L 254.833 235.167 254.845 232.000 C 254.873 224.782,252.917 222.902,246.750 224.219 M261.429 224.267 C 260.207 225.044,261.379 225.970,263.498 225.901 C 267.643 225.767,268.582 228.181,264.465 228.388 C 260.660 228.581,259.008 230.782,260.502 233.670 C 261.326 235.263,268.102 236.120,268.955 234.739 C 269.395 234.027,269.138 226.715,268.641 225.786 C 267.822 224.254,263.035 223.247,261.429 224.267 M275.750 224.219 C 275.009 224.378,275.000 224.446,275.000 229.878 L 275.000 235.376 276.076 235.271 L 277.151 235.167 277.132 230.610 L 277.113 226.053 278.182 225.852 C 280.961 225.331,281.667 226.517,281.667 231.709 L 281.667 235.376 282.750 235.271 L 283.833 235.167 283.845 232.000 C 283.873 224.782,281.917 222.902,275.750 224.219 M291.500 224.757 C 287.492 226.999,287.975 233.617,292.249 235.027 C 293.336 235.386,298.095 235.350,298.464 234.980 C 299.351 234.093,298.172 233.380,295.884 233.419 C 292.479 233.477,291.000 232.341,291.000 229.667 C 291.000 227.036,292.479 225.863,295.737 225.908 C 297.708 225.934,298.000 225.857,298.190 225.261 C 298.663 223.771,293.904 223.412,291.500 224.757 M305.317 224.751 C 302.157 226.881,302.035 232.175,305.094 234.455 C 307.636 236.349,313.503 235.177,311.866 233.102 C 311.838 233.067,311.172 233.182,310.385 233.359 C 307.902 233.917,305.762 232.981,305.184 231.083 C 304.955 230.334,304.959 230.333,309.024 230.333 L 313.093 230.333 312.907 228.530 C 312.493 224.515,308.568 222.561,305.317 224.751 M231.248 224.583 C 230.816 225.449,231.249 225.839,232.750 225.935 L 234.333 226.037 234.333 229.196 C 234.333 234.127,235.103 235.333,238.248 235.333 C 240.220 235.333,241.070 234.800,240.787 233.741 C 240.625 233.136,240.440 233.032,239.875 233.230 C 237.147 234.187,236.678 233.482,236.672 228.417 L 236.667 224.333 234.020 224.333 C 232.564 224.333,231.317 224.446,231.248 224.583 M108.417 226.718 C 109.727 228.266,109.267 228.667,106.177 228.667 C 103.632 228.667,103.375 228.609,103.561 228.083 C 104.364 225.818,107.023 225.071,108.417 226.718 M151.418 226.592 C 152.316 227.381,152.755 229.435,152.348 230.947 C 151.439 234.320,147.894 234.320,146.986 230.947 C 146.021 227.363,148.982 224.453,151.418 226.592 M310.083 226.718 C 311.394 228.266,310.933 228.667,307.844 228.667 C 305.299 228.667,305.041 228.609,305.228 228.083 C 306.031 225.818,308.689 225.071,310.083 226.718 M179.625 230.208 C 181.292 230.542,181.215 233.200,179.529 233.517 C 177.587 233.881,176.000 233.124,176.000 231.833 C 176.000 230.828,176.611 230.366,178.375 230.039 C 178.490 230.017,179.052 230.094,179.625 230.208 M265.958 230.208 C 267.625 230.542,267.548 233.200,265.862 233.517 C 263.920 233.881,262.333 233.124,262.333 231.833 C 262.333 230.828,262.945 230.366,264.708 230.039 C 264.823 230.017,265.385 230.094,265.958 230.208 " stroke="none" fill="#0c4c84" fill-rule="evenodd"></path></g></svg>